<svg width="116" height="34" viewBox="0 0 116 34" fill="none" xmlns="http://www.w3.org/2000/svg">
<path d="M5.41391 22.3588C5.01335 21.6864 5.28997 20.815 6.00506 20.4968L12.3385 17.6778C12.7214 17.5074 13.1627 17.531 13.5252 17.7412L17.1442 19.8401C17.5048 20.0492 17.7439 20.4178 17.7879 20.8322L18.5269 27.7916C18.6093 28.5676 17.9974 29.2423 17.217 29.2359L14.2894 29.2118C13.5015 29.2053 12.8986 28.5081 13.0059 27.7275L13.5913 23.4685C13.6393 23.1191 13.4709 22.7755 13.1653 22.5995C12.8593 22.4233 12.4769 22.4504 12.1988 22.668L8.86465 25.2766C8.2448 25.7615 7.34004 25.5924 6.93727 24.9162L5.41391 22.3588Z" fill="white"/>
<path fill-rule="evenodd" clip-rule="evenodd" d="M19.1674 19.6496L24.7642 23.7665C25.0811 23.9996 25.5307 23.9018 25.722 23.5581L27.1724 20.9526C27.3634 20.6095 27.2106 20.1766 26.8466 20.0294L22.8811 18.4251C22.3068 18.1928 21.9309 17.6353 21.9309 17.0158C21.9309 16.4002 22.3021 15.8453 22.8712 15.6105L26.8505 13.9678C27.2127 13.8182 27.3627 13.3856 27.1707 13.044L25.7255 10.4722C25.5333 10.1302 25.0851 10.0335 24.769 10.266L19.1674 14.3864C19.0001 14.5094 18.9013 14.7048 18.9013 14.9125V19.1234C18.9013 19.3312 19.0001 19.5265 19.1674 19.6496ZM18.7804 20.1758C18.4457 19.9296 18.248 19.5389 18.248 19.1234V14.9125C18.248 14.4971 18.4457 14.1064 18.7804 13.8602L24.382 9.73982C25.0141 9.27486 25.9106 9.46812 26.295 10.1522L27.7402 12.724C28.1241 13.4073 27.8242 14.2725 27.0998 14.5716L23.1204 16.2142C22.7959 16.3482 22.5841 16.6647 22.5841 17.0158C22.5841 17.3691 22.7985 17.6871 23.1261 17.8196L27.0916 19.4238C27.8196 19.7184 28.1251 20.5841 27.7431 21.2703L26.2927 23.8758C25.9101 24.5632 25.011 24.7589 24.3772 24.2927L18.7804 20.1758Z" fill="#2DEBFC"/>
<path d="M17.1441 14.1478C17.5047 13.9387 17.7438 13.5701 17.7878 13.1556L18.5255 6.20842C18.6083 5.42808 17.9894 4.75129 17.2048 4.76425L14.2768 4.8126C13.4933 4.82554 12.8974 5.52047 13.0041 6.29674L13.591 10.5665C13.6392 10.9168 13.4702 11.2613 13.1638 11.4377C12.8583 11.6135 12.477 11.5873 12.1984 11.3715L8.81845 8.75265C8.19711 8.27122 7.29439 8.44352 6.89404 9.11995L5.40812 11.6306C5.01021 12.3029 5.28742 13.1718 6.00116 13.4895L12.3384 16.3101C12.7213 16.4805 13.1626 16.4569 13.5251 16.2467L17.1441 14.1478Z" fill="#2C85FC"/>
<path d="M48.0725 15.9063V24.4087H51.236V13.5733H46.6289V15.9063H48.0725Z" fill="white"/>
<path d="M47.9732 12.0508C48.2632 12.3539 48.7048 12.5055 49.2979 12.5055C49.8913 12.5055 50.3261 12.3539 50.6027 12.0508C50.893 11.7343 51.0377 11.3389 51.0377 10.8645C51.0377 10.3767 50.893 9.98119 50.6027 9.67811C50.3261 9.36176 49.8913 9.20352 49.2979 9.20352C48.7048 9.20352 48.2632 9.36176 47.9732 9.67811C47.6966 9.98119 47.5581 10.3767 47.5581 10.8645C47.5581 11.3389 47.6966 11.7343 47.9732 12.0508Z" fill="white"/>
<path d="M72.67 24.358C72.96 24.6611 73.4016 24.8127 73.9947 24.8127C74.5881 24.8127 75.0228 24.6611 75.2995 24.358C75.5898 24.0415 75.7345 23.6461 75.7345 23.1717C75.7345 22.6839 75.5898 22.2884 75.2995 21.9853C75.0228 21.669 74.5881 21.5107 73.9947 21.5107C73.4016 21.5107 72.96 21.669 72.67 21.9853C72.3934 22.2884 72.2549 22.6839 72.2549 23.1717C72.2549 23.6461 72.3934 24.0415 72.67 24.358Z" fill="white"/>
<path d="M37.0593 24.1712C37.9555 24.5798 39.0562 24.7842 40.3609 24.7842C41.587 24.7842 42.6413 24.5931 43.5247 24.2107C44.4079 23.8286 45.0865 23.2946 45.5611 22.6094C46.049 21.9104 46.2927 21.0998 46.2927 20.1771C46.2927 19.2808 46.0624 18.5229 45.6009 17.9033C45.1525 17.2706 44.5267 16.7763 43.7223 16.4205C42.9182 16.0513 41.9891 15.8206 40.9345 15.7285L39.8273 15.6296C39.1682 15.5767 38.6936 15.3989 38.4036 15.0956C38.1136 14.7925 37.9686 14.4366 37.9686 14.028C37.9686 13.7115 38.0479 13.4216 38.2057 13.158C38.3641 12.8811 38.6012 12.6637 38.9177 12.5055C39.2472 12.3473 39.6493 12.2682 40.1238 12.2682C40.6245 12.2682 41.0399 12.3604 41.3695 12.5451C41.442 12.5841 41.5109 12.6258 41.5756 12.6701L41.5913 12.681C41.6154 12.6978 41.6393 12.7151 41.6624 12.7326C41.8627 12.8856 42.022 13.0669 42.1406 13.2766C42.3117 13.5667 42.398 13.8895 42.398 14.2455H45.5611C45.5611 13.2964 45.3436 12.4725 44.9089 11.7739C44.4738 11.0621 43.8477 10.5151 43.0306 10.1327C42.2262 9.73728 41.2575 9.53955 40.1238 9.53955C39.0428 9.53955 38.1071 9.72421 37.316 10.0932C36.5253 10.4492 35.9058 10.9633 35.4577 11.6354C35.0223 12.3077 34.8048 13.1053 34.8048 14.028C34.8048 15.3066 35.2336 16.3347 36.0903 17.1125C36.947 17.8902 38.094 18.3384 39.5307 18.457L40.6183 18.5558C41.5011 18.635 42.1406 18.8129 42.5361 19.0896C42.9313 19.3533 43.1292 19.7158 43.1292 20.1771C43.1292 20.3892 43.0946 20.588 43.025 20.7738C42.9734 20.9117 42.9029 21.0423 42.8131 21.1658C42.6018 21.4427 42.2921 21.6599 41.8836 21.8183C41.475 21.9764 40.9674 22.0555 40.3609 22.0555C39.6888 22.0555 39.1417 21.9633 38.7201 21.7788C38.2981 21.5809 37.982 21.3239 37.7707 21.0077C37.5731 20.6912 37.4744 20.3486 37.4744 19.9794H34.3306C34.3306 20.9153 34.5612 21.7458 35.0223 22.4709C35.4838 23.1826 36.1628 23.7495 37.0593 24.1712Z" fill="white"/>
<path d="M79.8826 24.1712C80.7788 24.5798 81.8794 24.7842 83.1842 24.7842C84.4102 24.7842 85.4645 24.5931 86.348 24.2107C87.2311 23.8286 87.9098 23.2946 88.3843 22.6094C88.8723 21.9104 89.1159 21.0998 89.1159 20.1771C89.1159 19.2808 88.8857 18.5229 88.4242 17.9033C87.9758 17.2706 87.35 16.7763 86.5456 16.4205C85.7415 16.0513 84.8123 15.8206 83.7577 15.7285L82.6505 15.6296C81.9914 15.5767 81.5169 15.3989 81.2269 15.0956C80.9368 14.7925 80.7918 14.4366 80.7918 14.028C80.7918 13.7115 80.8712 13.4216 81.0289 13.158C81.1873 12.8811 81.4245 12.6637 81.7409 12.5055C82.0705 12.3473 82.4725 12.2682 82.9471 12.2682C83.4478 12.2682 83.8632 12.3604 84.1927 12.5451C84.2652 12.5841 84.3341 12.6258 84.3988 12.6701L84.4145 12.681C84.4387 12.6978 84.4625 12.7151 84.4857 12.7326C84.6859 12.8856 84.8453 13.0669 84.9638 13.2766C85.135 13.5667 85.2212 13.8895 85.2212 14.2455H88.3843C88.3843 13.2964 88.1668 12.4725 87.7321 11.7739C87.2971 11.0621 86.671 10.5151 85.8538 10.1327C85.0494 9.73728 84.0807 9.53955 82.9471 9.53955C81.866 9.53955 80.9303 9.72421 80.1393 10.0932C79.3486 10.4492 78.729 10.9633 78.2809 11.6354C77.8456 12.3077 77.628 13.1053 77.628 14.028C77.628 15.3066 78.0569 16.3347 78.9135 17.1125C79.7702 17.8902 80.9172 18.3384 82.354 18.457L83.4415 18.5558C84.3243 18.635 84.9638 18.8129 85.3594 19.0896C85.7545 19.3533 85.9525 19.7158 85.9525 20.1771C85.9525 20.3892 85.9178 20.588 85.8483 20.7738C85.7967 20.9117 85.7261 21.0423 85.6363 21.1658C85.425 21.4427 85.1154 21.6599 84.7068 21.8183C84.2982 21.9764 83.7907 22.0555 83.1842 22.0555C82.512 22.0555 81.965 21.9633 81.5433 21.7788C81.1214 21.5809 80.8052 21.3239 80.5939 21.0077C80.3963 20.6912 80.2977 20.3486 80.2977 19.9794H77.1538C77.1538 20.9153 77.3844 21.7458 77.8456 22.4709C78.307 23.1826 78.986 23.7495 79.8826 24.1712Z" fill="white"/>
<path d="M58.2947 24.5468C57.2006 24.5468 56.3175 24.4152 55.6453 24.1513C54.9728 23.8746 54.4787 23.42 54.1622 22.7874C53.8591 22.1414 53.7076 21.2713 53.7076 20.1771V15.8865H52.0664V13.5732H53.7076V10.6469H56.6535V13.5732H59.8173V15.8865H56.6535V20.2959C56.6535 20.81 56.7855 21.2053 57.049 21.482C57.3257 21.7458 57.7147 21.8775 58.2157 21.8775H59.8173V24.5468H58.2947Z" fill="white"/>
<path d="M107.551 24.5468C106.456 24.5468 105.573 24.4152 104.901 24.1513C104.229 23.8746 103.735 23.42 103.418 22.7874C103.115 22.1414 102.963 21.2713 102.963 20.1771V15.8865H101.322V13.5732H102.963V10.6469H105.909V13.5732H109.073V15.8865H105.909V20.2959C105.909 20.81 106.041 21.2053 106.305 21.482C106.582 21.7458 106.971 21.8775 107.472 21.8775H109.073V24.5468H107.551Z" fill="white"/>
<path fill-rule="evenodd" clip-rule="evenodd" d="M63.6258 24.3097C64.3374 24.6262 65.1549 24.7843 66.0776 24.7843C66.9868 24.7843 67.7913 24.6262 68.4899 24.3097C69.1885 23.9932 69.7685 23.5517 70.2297 22.985C70.6911 22.418 71.0011 21.7723 71.1588 21.0473H68.2524C68.1208 21.3768 67.8703 21.6535 67.5012 21.8775C67.1322 22.1019 66.6573 22.2139 66.0776 22.2139C65.7183 22.2139 65.3973 22.1714 65.1144 22.0862C64.8992 22.0215 64.7062 21.9324 64.5354 21.8184C64.1398 21.5548 63.8498 21.1854 63.6653 20.7111C63.614 20.576 63.5702 20.4346 63.5333 20.2873C63.4958 20.1382 63.4654 19.983 63.4425 19.8214H71.3568V18.7536C71.3568 17.765 71.1458 16.8555 70.7241 16.0251C70.3022 15.1813 69.6891 14.5025 68.8854 13.9884C68.0943 13.4612 67.1188 13.1975 65.9587 13.1975C65.0756 13.1975 64.2845 13.3558 63.5859 13.6721C62.901 13.9752 62.3275 14.3904 61.866 14.9177C61.4049 15.445 61.0489 16.0448 60.7981 16.7171C60.5609 17.376 60.4424 18.0681 60.4424 18.7931V19.1886C60.4424 19.8873 60.5609 20.5726 60.7981 21.2449C61.0489 21.904 61.4049 22.5036 61.866 23.0441C62.3406 23.5716 62.9268 23.9932 63.6258 24.3097ZM63.4971 17.8662C63.5059 17.8244 63.5151 17.7831 63.5252 17.7425C63.5526 17.6308 63.5843 17.5236 63.6202 17.4213C63.6405 17.363 63.662 17.3062 63.6852 17.2509C63.8828 16.7631 64.1728 16.3941 64.555 16.1437C64.698 16.0501 64.8528 15.974 65.0191 15.9154C65.2986 15.8172 65.6122 15.768 65.9587 15.768C66.4995 15.768 66.9473 15.8933 67.3033 16.1437C67.6724 16.3809 67.9493 16.7302 68.1339 17.1916C68.1489 17.2288 68.1629 17.2667 68.1766 17.305C68.1985 17.3662 68.2188 17.4289 68.2377 17.4932C68.2655 17.5889 68.29 17.6879 68.3115 17.7903C68.3272 17.8658 68.3406 17.943 68.3527 18.0221H63.4667C63.4759 17.9692 63.486 17.9173 63.4971 17.8662Z" fill="white"/>
<path fill-rule="evenodd" clip-rule="evenodd" d="M93.0745 24.3097C93.7862 24.6262 94.6037 24.7843 95.5263 24.7843C96.4356 24.7843 97.24 24.6262 97.9386 24.3097C98.6372 23.9932 99.2172 23.5517 99.6784 22.985C100.14 22.418 100.45 21.7723 100.608 21.0473H97.7011C97.5695 21.3768 97.319 21.6535 96.95 21.8775C96.5809 22.1019 96.106 22.2139 95.5263 22.2139C95.167 22.2139 94.846 22.1714 94.5632 22.0862C94.3479 22.0215 94.1549 21.9324 93.9841 21.8184C93.5886 21.5548 93.2986 21.1854 93.114 20.7111C93.0627 20.576 93.019 20.4346 92.9821 20.2873C92.9445 20.1382 92.9141 19.983 92.8913 19.8214H100.805V18.7536C100.805 17.765 100.595 16.8555 100.173 16.0251C99.7509 15.1813 99.1379 14.5025 98.3341 13.9884C97.5431 13.4612 96.5675 13.1975 95.4074 13.1975C94.5243 13.1975 93.7333 13.3558 93.0347 13.6721C92.3498 13.9752 91.7763 14.3904 91.3148 14.9177C90.8536 15.445 90.4976 16.0448 90.2468 16.7171C90.0097 17.376 89.8911 18.0681 89.8911 18.7931V19.1886C89.8911 19.8873 90.0097 20.5726 90.2468 21.2449C90.4976 21.904 90.8536 22.5036 91.3148 23.0441C91.7893 23.5716 92.3756 23.9932 93.0745 24.3097ZM92.9458 17.8662C92.9546 17.8244 92.9638 17.7831 92.9739 17.7425C93.0013 17.6308 93.033 17.5236 93.069 17.4213C93.0892 17.363 93.1108 17.3062 93.1339 17.2509C93.3315 16.7631 93.6216 16.3941 94.0037 16.1437C94.1467 16.0501 94.3015 15.974 94.4678 15.9154C94.7474 15.8172 95.0609 15.768 95.4074 15.768C95.9483 15.768 96.396 15.8933 96.752 16.1437C97.1211 16.3809 97.3981 16.7302 97.5826 17.1916C97.5976 17.2288 97.6117 17.2667 97.6254 17.305C97.6473 17.3662 97.6675 17.4289 97.6864 17.4932C97.7142 17.5889 97.7387 17.6879 97.7603 17.7903C97.7759 17.8658 97.7893 17.943 97.8014 18.0221H92.9154C92.9246 17.9692 92.9347 17.9173 92.9458 17.8662Z" fill="white"/>
</svg>
