<svg width="42" height="40" viewBox="0 0 42 40" fill="none" xmlns="http://www.w3.org/2000/svg">
<path d="M6.70194 26.6343C6.20605 25.8018 6.54851 24.723 7.43378 24.329L15.2746 20.8392C15.7485 20.6282 16.2949 20.6574 16.7436 20.9177L21.224 23.516C21.6704 23.7749 21.9664 24.2312 22.0209 24.7443L22.9357 33.36C23.0377 34.3207 22.2802 35.1559 21.3141 35.148L17.6897 35.1182C16.7143 35.1102 15.9679 34.247 16.1007 33.2807L16.8255 28.008C16.885 27.5755 16.6764 27.1501 16.2981 26.9322C15.9192 26.7141 15.4459 26.7476 15.1016 27.017L10.9739 30.2464C10.2066 30.8468 9.08648 30.6374 8.58786 29.8003L6.70194 26.6343Z" fill="white"/>
<path fill-rule="evenodd" clip-rule="evenodd" d="M23.729 23.2802L30.6578 28.3769C31.0501 28.6655 31.6067 28.5444 31.8436 28.1188L33.6391 24.8933C33.8756 24.4685 33.6865 23.9326 33.2358 23.7503L28.3265 21.7643C27.6156 21.4767 27.1502 20.7864 27.1502 20.0195C27.1502 19.2574 27.6098 18.5705 28.3142 18.2797L33.2406 16.2461C33.6891 16.061 33.8747 15.5254 33.6371 15.1025L31.8479 11.9186C31.61 11.4951 31.0551 11.3755 30.6638 11.6633L23.729 16.7643C23.5218 16.9167 23.3995 17.1585 23.3995 17.4157V22.6288C23.3995 22.8859 23.5218 23.1278 23.729 23.2802ZM23.2498 23.9316C22.8355 23.6268 22.5908 23.1431 22.5908 22.6288V17.4157C22.5908 16.9013 22.8355 16.4177 23.2498 16.1129L30.1846 11.0119C30.9672 10.4363 32.077 10.6755 32.5529 11.5224L34.342 14.7063C34.8174 15.5522 34.4461 16.6233 33.5492 16.9936L28.6228 19.0272C28.221 19.1931 27.9589 19.5848 27.9589 20.0195C27.9589 20.4569 28.2243 20.8506 28.6298 21.0146L33.5391 23.0007C34.4404 23.3653 34.8186 24.4371 34.3457 25.2866L32.5501 28.5121C32.0763 29.3632 30.9633 29.6055 30.1787 29.0283L23.2498 23.9316Z" fill="#2DEBFC"/>
<path d="M21.2243 16.469C21.6707 16.2102 21.9667 15.7538 22.0212 15.2407L22.9344 6.64009C23.037 5.67404 22.2708 4.83618 21.2995 4.85222L17.6745 4.91208C16.7046 4.92809 15.9669 5.78841 16.099 6.74943L16.8256 12.0354C16.8852 12.469 16.676 12.8955 16.2967 13.1139C15.9185 13.3315 15.4464 13.2992 15.1015 13.0319L10.9172 9.78984C10.148 9.19383 9.03041 9.40713 8.53478 10.2446L6.69521 13.3527C6.2026 14.185 6.54579 15.2608 7.4294 15.6541L15.2749 19.1459C15.7489 19.3568 16.2952 19.3276 16.7439 19.0674L21.2243 16.469Z" fill="#2C85FC"/>
</svg>
