<svg width="390" height="247" viewBox="0 0 390 247" fill="none" xmlns="http://www.w3.org/2000/svg">
<g clip-path="url(#clip0_3133_8291)">
<rect x="-32.821" y="-6.47998" width="35.0446" height="35.0446" stroke="white" stroke-opacity="0.02" stroke-width="0.700893"/>
<rect x="2.22363" y="-6.47998" width="35.0446" height="35.0446" stroke="white" stroke-opacity="0.02" stroke-width="0.700893"/>
<rect x="37.2686" y="-6.47998" width="35.0446" height="35.0446" stroke="white" stroke-opacity="0.02" stroke-width="0.700893"/>
<rect x="72.313" y="-6.47998" width="35.0446" height="35.0446" stroke="white" stroke-opacity="0.02" stroke-width="0.700893"/>
<rect x="107.358" y="-6.47998" width="35.0446" height="35.0446" stroke="white" stroke-opacity="0.02" stroke-width="0.700893"/>
<rect x="142.402" y="-6.47998" width="35.0446" height="35.0446" stroke="white" stroke-opacity="0.02" stroke-width="0.700893"/>
<rect x="177.447" y="-6.47998" width="35.0446" height="35.0446" stroke="white" stroke-opacity="0.02" stroke-width="0.700893"/>
<rect x="212.492" y="-6.47998" width="35.0446" height="35.0446" stroke="white" stroke-opacity="0.02" stroke-width="0.700893"/>
<rect x="247.536" y="-6.47998" width="35.0446" height="35.0446" stroke="white" stroke-opacity="0.02" stroke-width="0.700893"/>
<rect x="282.581" y="-6.47998" width="35.0446" height="35.0446" stroke="white" stroke-opacity="0.02" stroke-width="0.700893"/>
<rect x="317.625" y="-6.47998" width="35.0446" height="35.0446" stroke="white" stroke-opacity="0.02" stroke-width="0.700893"/>
<rect x="352.67" y="-6.47998" width="35.0446" height="35.0446" stroke="white" stroke-opacity="0.02" stroke-width="0.700893"/>
<rect x="387.715" y="-6.47998" width="35.0446" height="35.0446" stroke="white" stroke-opacity="0.02" stroke-width="0.700893"/>
<rect x="-32.821" y="28.5645" width="35.0446" height="35.0446" stroke="white" stroke-opacity="0.02" stroke-width="0.700893"/>
<rect x="2.22363" y="28.5645" width="35.0446" height="35.0446" stroke="white" stroke-opacity="0.02" stroke-width="0.700893"/>
<rect x="37.2686" y="28.5645" width="35.0446" height="35.0446" stroke="white" stroke-opacity="0.02" stroke-width="0.700893"/>
<rect x="72.313" y="28.5645" width="35.0446" height="35.0446" stroke="white" stroke-opacity="0.02" stroke-width="0.700893"/>
<rect x="107.358" y="28.5645" width="35.0446" height="35.0446" stroke="white" stroke-opacity="0.02" stroke-width="0.700893"/>
<rect x="142.402" y="28.5645" width="35.0446" height="35.0446" stroke="white" stroke-opacity="0.02" stroke-width="0.700893"/>
<rect x="177.447" y="28.5645" width="35.0446" height="35.0446" stroke="white" stroke-opacity="0.02" stroke-width="0.700893"/>
<rect x="212.492" y="28.5645" width="35.0446" height="35.0446" stroke="white" stroke-opacity="0.02" stroke-width="0.700893"/>
<rect x="247.536" y="28.5645" width="35.0446" height="35.0446" fill="white" fill-opacity="0.01" stroke="white" stroke-opacity="0.02" stroke-width="0.700893"/>
<rect x="282.581" y="28.5645" width="35.0446" height="35.0446" stroke="white" stroke-opacity="0.02" stroke-width="0.700893"/>
<rect x="317.625" y="28.5645" width="35.0446" height="35.0446" stroke="white" stroke-opacity="0.02" stroke-width="0.700893"/>
<rect x="352.67" y="28.5645" width="35.0446" height="35.0446" stroke="white" stroke-opacity="0.02" stroke-width="0.700893"/>
<rect x="387.715" y="28.5645" width="35.0446" height="35.0446" stroke="white" stroke-opacity="0.02" stroke-width="0.700893"/>
<rect x="-32.821" y="63.6091" width="35.0446" height="35.0446" stroke="white" stroke-opacity="0.02" stroke-width="0.700893"/>
<rect x="2.22363" y="63.6091" width="35.0446" height="35.0446" stroke="white" stroke-opacity="0.02" stroke-width="0.700893"/>
<rect x="37.2686" y="63.6091" width="35.0446" height="35.0446" stroke="white" stroke-opacity="0.02" stroke-width="0.700893"/>
<rect x="72.313" y="63.6091" width="35.0446" height="35.0446" stroke="white" stroke-opacity="0.02" stroke-width="0.700893"/>
<rect x="107.358" y="63.6091" width="35.0446" height="35.0446" stroke="white" stroke-opacity="0.02" stroke-width="0.700893"/>
<rect x="142.402" y="63.6091" width="35.0446" height="35.0446" stroke="white" stroke-opacity="0.02" stroke-width="0.700893"/>
<rect x="177.447" y="63.6091" width="35.0446" height="35.0446" stroke="white" stroke-opacity="0.02" stroke-width="0.700893"/>
<rect x="212.492" y="63.6091" width="35.0446" height="35.0446" stroke="white" stroke-opacity="0.02" stroke-width="0.700893"/>
<rect x="247.536" y="63.6091" width="35.0446" height="35.0446" stroke="white" stroke-opacity="0.02" stroke-width="0.700893"/>
<rect x="282.581" y="63.6091" width="35.0446" height="35.0446" stroke="white" stroke-opacity="0.02" stroke-width="0.700893"/>
<rect x="317.625" y="63.6091" width="35.0446" height="35.0446" stroke="white" stroke-opacity="0.02" stroke-width="0.700893"/>
<rect x="352.67" y="63.6091" width="35.0446" height="35.0446" stroke="white" stroke-opacity="0.02" stroke-width="0.700893"/>
<rect x="387.715" y="63.6091" width="35.0446" height="35.0446" stroke="white" stroke-opacity="0.02" stroke-width="0.700893"/>
<rect x="-32.821" y="98.6541" width="35.0446" height="35.0446" stroke="white" stroke-opacity="0.02" stroke-width="0.700893"/>
<rect x="2.22363" y="98.6541" width="35.0446" height="35.0446" stroke="white" stroke-opacity="0.02" stroke-width="0.700893"/>
<rect x="37.2686" y="98.6541" width="35.0446" height="35.0446" stroke="white" stroke-opacity="0.02" stroke-width="0.700893"/>
<rect x="72.313" y="98.6541" width="35.0446" height="35.0446" stroke="white" stroke-opacity="0.02" stroke-width="0.700893"/>
<rect x="107.358" y="98.6541" width="35.0446" height="35.0446" stroke="white" stroke-opacity="0.02" stroke-width="0.700893"/>
<rect x="142.402" y="98.6541" width="35.0446" height="35.0446" stroke="white" stroke-opacity="0.02" stroke-width="0.700893"/>
<rect x="177.447" y="98.6541" width="35.0446" height="35.0446" stroke="white" stroke-opacity="0.02" stroke-width="0.700893"/>
<rect x="212.492" y="98.6541" width="35.0446" height="35.0446" stroke="white" stroke-opacity="0.02" stroke-width="0.700893"/>
<rect x="247.536" y="98.6541" width="35.0446" height="35.0446" stroke="white" stroke-opacity="0.02" stroke-width="0.700893"/>
<rect x="282.581" y="98.6541" width="35.0446" height="35.0446" stroke="white" stroke-opacity="0.02" stroke-width="0.700893"/>
<rect x="317.625" y="98.6541" width="35.0446" height="35.0446" stroke="white" stroke-opacity="0.02" stroke-width="0.700893"/>
<rect x="352.67" y="98.6541" width="35.0446" height="35.0446" stroke="white" stroke-opacity="0.02" stroke-width="0.700893"/>
<rect x="387.715" y="98.6541" width="35.0446" height="35.0446" stroke="white" stroke-opacity="0.02" stroke-width="0.700893"/>
<rect x="-32.821" y="133.699" width="35.0446" height="35.0446" stroke="white" stroke-opacity="0.02" stroke-width="0.700893"/>
<rect x="2.22363" y="133.699" width="35.0446" height="35.0446" stroke="white" stroke-opacity="0.02" stroke-width="0.700893"/>
<rect x="37.2686" y="133.699" width="35.0446" height="35.0446" stroke="white" stroke-opacity="0.02" stroke-width="0.700893"/>
<rect x="72.313" y="133.699" width="35.0446" height="35.0446" stroke="white" stroke-opacity="0.02" stroke-width="0.700893"/>
<rect x="107.358" y="133.699" width="35.0446" height="35.0446" fill="white" fill-opacity="0.01" stroke="white" stroke-opacity="0.02" stroke-width="0.700893"/>
<rect x="142.402" y="133.699" width="35.0446" height="35.0446" stroke="white" stroke-opacity="0.02" stroke-width="0.700893"/>
<rect x="177.447" y="133.699" width="35.0446" height="35.0446" stroke="white" stroke-opacity="0.02" stroke-width="0.700893"/>
<rect x="212.492" y="133.699" width="35.0446" height="35.0446" stroke="white" stroke-opacity="0.02" stroke-width="0.700893"/>
<rect x="247.536" y="133.699" width="35.0446" height="35.0446" stroke="white" stroke-opacity="0.02" stroke-width="0.700893"/>
<rect x="282.581" y="133.699" width="35.0446" height="35.0446" stroke="white" stroke-opacity="0.02" stroke-width="0.700893"/>
<rect x="317.625" y="133.699" width="35.0446" height="35.0446" stroke="white" stroke-opacity="0.02" stroke-width="0.700893"/>
<rect x="352.67" y="133.699" width="35.0446" height="35.0446" stroke="white" stroke-opacity="0.02" stroke-width="0.700893"/>
<rect x="387.715" y="133.699" width="35.0446" height="35.0446" stroke="white" stroke-opacity="0.02" stroke-width="0.700893"/>
<rect x="-32.821" y="168.743" width="35.0446" height="35.0446" fill="white" fill-opacity="0.01" stroke="white" stroke-opacity="0.02" stroke-width="0.700893"/>
<rect x="2.22363" y="168.743" width="35.0446" height="35.0446" stroke="white" stroke-opacity="0.02" stroke-width="0.700893"/>
<rect x="37.2686" y="168.743" width="35.0446" height="35.0446" stroke="white" stroke-opacity="0.02" stroke-width="0.700893"/>
<rect x="72.313" y="168.743" width="35.0446" height="35.0446" stroke="white" stroke-opacity="0.02" stroke-width="0.700893"/>
<rect x="107.358" y="168.743" width="35.0446" height="35.0446" stroke="white" stroke-opacity="0.02" stroke-width="0.700893"/>
<rect x="142.402" y="168.743" width="35.0446" height="35.0446" stroke="white" stroke-opacity="0.02" stroke-width="0.700893"/>
<rect x="177.447" y="168.743" width="35.0446" height="35.0446" stroke="white" stroke-opacity="0.02" stroke-width="0.700893"/>
<rect x="212.492" y="168.743" width="35.0446" height="35.0446" stroke="white" stroke-opacity="0.02" stroke-width="0.700893"/>
<rect x="247.536" y="168.743" width="35.0446" height="35.0446" stroke="white" stroke-opacity="0.02" stroke-width="0.700893"/>
<rect x="282.581" y="168.743" width="35.0446" height="35.0446" stroke="white" stroke-opacity="0.02" stroke-width="0.700893"/>
<rect x="317.625" y="168.743" width="35.0446" height="35.0446" stroke="white" stroke-opacity="0.02" stroke-width="0.700893"/>
<rect x="352.67" y="168.743" width="35.0446" height="35.0446" stroke="white" stroke-opacity="0.02" stroke-width="0.700893"/>
<rect x="387.715" y="168.743" width="35.0446" height="35.0446" stroke="white" stroke-opacity="0.02" stroke-width="0.700893"/>
<rect x="-32.821" y="203.788" width="35.0446" height="35.0446" stroke="white" stroke-opacity="0.02" stroke-width="0.700893"/>
<rect x="2.22363" y="203.788" width="35.0446" height="35.0446" stroke="white" stroke-opacity="0.02" stroke-width="0.700893"/>
<rect x="37.2686" y="203.788" width="35.0446" height="35.0446" stroke="white" stroke-opacity="0.02" stroke-width="0.700893"/>
<rect x="72.313" y="203.788" width="35.0446" height="35.0446" stroke="white" stroke-opacity="0.02" stroke-width="0.700893"/>
<rect x="107.358" y="203.788" width="35.0446" height="35.0446" stroke="white" stroke-opacity="0.02" stroke-width="0.700893"/>
<rect x="142.402" y="203.788" width="35.0446" height="35.0446" stroke="white" stroke-opacity="0.02" stroke-width="0.700893"/>
<rect x="177.447" y="203.788" width="35.0446" height="35.0446" stroke="white" stroke-opacity="0.02" stroke-width="0.700893"/>
<rect x="212.492" y="203.788" width="35.0446" height="35.0446" stroke="white" stroke-opacity="0.02" stroke-width="0.700893"/>
<rect x="247.536" y="203.788" width="35.0446" height="35.0446" stroke="white" stroke-opacity="0.02" stroke-width="0.700893"/>
<rect x="282.581" y="203.788" width="35.0446" height="35.0446" stroke="white" stroke-opacity="0.02" stroke-width="0.700893"/>
<rect x="317.625" y="203.788" width="35.0446" height="35.0446" stroke="white" stroke-opacity="0.02" stroke-width="0.700893"/>
<rect x="352.67" y="203.788" width="35.0446" height="35.0446" stroke="white" stroke-opacity="0.02" stroke-width="0.700893"/>
<rect x="387.715" y="203.788" width="35.0446" height="35.0446" stroke="white" stroke-opacity="0.02" stroke-width="0.700893"/>
<rect x="-32.821" y="238.833" width="35.0446" height="35.0446" stroke="white" stroke-opacity="0.02" stroke-width="0.700893"/>
<rect x="2.22363" y="238.833" width="35.0446" height="35.0446" stroke="white" stroke-opacity="0.02" stroke-width="0.700893"/>
<rect x="37.2686" y="238.833" width="35.0446" height="35.0446" stroke="white" stroke-opacity="0.02" stroke-width="0.700893"/>
<rect x="72.313" y="238.833" width="35.0446" height="35.0446" stroke="white" stroke-opacity="0.02" stroke-width="0.700893"/>
<rect x="107.358" y="238.833" width="35.0446" height="35.0446" stroke="white" stroke-opacity="0.02" stroke-width="0.700893"/>
<rect x="142.402" y="238.833" width="35.0446" height="35.0446" stroke="white" stroke-opacity="0.02" stroke-width="0.700893"/>
<rect x="177.447" y="238.833" width="35.0446" height="35.0446" stroke="white" stroke-opacity="0.02" stroke-width="0.700893"/>
<rect x="212.492" y="238.833" width="35.0446" height="35.0446" stroke="white" stroke-opacity="0.02" stroke-width="0.700893"/>
<rect x="247.536" y="238.833" width="35.0446" height="35.0446" stroke="white" stroke-opacity="0.02" stroke-width="0.700893"/>
<rect x="282.581" y="238.833" width="35.0446" height="35.0446" stroke="white" stroke-opacity="0.02" stroke-width="0.700893"/>
<rect x="317.625" y="238.833" width="35.0446" height="35.0446" stroke="white" stroke-opacity="0.02" stroke-width="0.700893"/>
<rect x="352.67" y="238.833" width="35.0446" height="35.0446" stroke="white" stroke-opacity="0.02" stroke-width="0.700893"/>
<rect x="387.715" y="238.833" width="35.0446" height="35.0446" stroke="white" stroke-opacity="0.02" stroke-width="0.700893"/>
<g filter="url(#filter0_f_3133_8291)">
<rect x="-232.575" y="-605.802" width="888.732" height="699.978" fill="url(#paint0_radial_3133_8291)"/>
</g>
<rect x="-331.051" y="-275.727" width="1011.39" height="635.464" fill="url(#paint1_radial_3133_8291)" stroke="#14161B" stroke-width="0.700893"/>
</g>
<defs>
<filter id="filter0_f_3133_8291" x="-442.843" y="-816.07" width="1309.27" height="1120.51" filterUnits="userSpaceOnUse" color-interpolation-filters="sRGB">
<feFlood flood-opacity="0" result="BackgroundImageFix"/>
<feBlend mode="normal" in="SourceGraphic" in2="BackgroundImageFix" result="shape"/>
<feGaussianBlur stdDeviation="105.134" result="effect1_foregroundBlur_3133_8291"/>
</filter>
<radialGradient id="paint0_radial_3133_8291" cx="0" cy="0" r="1" gradientUnits="userSpaceOnUse" gradientTransform="translate(211.791 -255.813) rotate(90) scale(349.989 444.366)">
<stop offset="0.015625" stop-color="#2266C1" stop-opacity="0.69"/>
<stop offset="0.223958" stop-color="#2266C1" stop-opacity="0.34"/>
<stop offset="0.911458" stop-color="#2266C1" stop-opacity="0"/>
</radialGradient>
<radialGradient id="paint1_radial_3133_8291" cx="0" cy="0" r="1" gradientUnits="userSpaceOnUse" gradientTransform="translate(174.643 42.0048) rotate(90) scale(317.382 505.344)">
<stop stop-color="#14161B" stop-opacity="0"/>
<stop offset="0.833333" stop-color="#14161B"/>
</radialGradient>
<clipPath id="clip0_3133_8291">
<rect width="390" height="246" fill="white" transform="translate(0 0.38623)"/>
</clipPath>
</defs>
</svg>
